<?xml version="1.0" encoding="iso-8859-1"?>
<!-- Generator: Adobe Illustrator 19.0.0, SVG Export Plug-In . SVG Version: 6.00 Build 0)  -->
<svg fill="#fff" version="1.1" id="Layer_1" xmlns="http://www.w3.org/2000/svg" xmlns:xlink="http://www.w3.org/1999/xlink" x="0px" y="0px"
	 viewBox="0 0 512 512" style="enable-background:new 0 0 512 512;" xml:space="preserve">
<g>
	<g>
		<rect x="229.042" y="307.634" width="53.905" height="50.588"/>
	</g>
</g>
<g>
	<g>
		<path d="M365.378,135.315v-29.092c0-30.267-24.625-54.892-54.893-54.892H201.518c-30.268,0-54.893,24.625-54.893,54.892v29.093H0
			v138.922h512V135.315H365.378z M331.984,135.317h-151.97v-29.093c0-11.855,9.646-21.501,21.502-21.501h108.967
			c11.856,0,21.502,9.646,21.502,21.501V135.317z"/>
	</g>
</g>
<g>
	<g>
		<polygon points="316.345,307.629 316.345,391.614 195.655,391.614 195.655,307.629 28.755,307.629 28.755,460.668 
			483.245,460.668 483.245,307.629 		"/>
	</g>
</g>
<g>
</g>
<g>
</g>
<g>
</g>
<g>
</g>
<g>
</g>
<g>
</g>
<g>
</g>
<g>
</g>
<g>
</g>
<g>
</g>
<g>
</g>
<g>
</g>
<g>
</g>
<g>
</g>
<g>
</g>
</svg>
